<?xml version="1.0" encoding="utf-8"?>
<!-- Generator: Adobe Illustrator 20.1.0, SVG Export Plug-In . SVG Version: 6.00 Build 0)  -->
<svg version="1.1" id="Layer_1" xmlns="http://www.w3.org/2000/svg" xmlns:xlink="http://www.w3.org/1999/xlink" x="0px" y="0px"
	 viewBox="0 0 882 894" style="enable-background:new 0 0 882 894;" xml:space="preserve">
<style type="text/css">
	.st0{opacity:0.3;}
	.st1{clip-path:url(#SVGID_2_);}
	.st2{fill:#ECECEC;}
	.st3{fill:#EBEBEB;}
	.st4{fill:#EAEAEA;}
	.st5{fill:#E8E8E8;}
	.st6{fill:#E7E7E7;}
	.st7{fill:#E6E6E6;}
	.st8{opacity:0.4;}
	.st9{clip-path:url(#SVGID_4_);}
	.st10{fill:#010101;}
	.st11{fill:#020202;}
	.st12{fill:#030303;}
	.st13{fill:#040404;}
	.st14{fill:#050505;}
	.st15{fill:#060606;}
	.st16{fill:#070707;}
	.st17{fill:#080808;}
	.st18{fill:#090909;}
	.st19{fill:#0A0A0A;}
	.st20{fill:#0B0B0B;}
	.st21{fill:#0C0C0C;}
	.st22{fill:#0D0D0D;}
	.st23{fill:#0E0E0E;}
	.st24{fill:#0F0F0F;}
	.st25{fill:#101010;}
	.st26{fill:#111111;}
	.st27{fill:#121212;}
	.st28{fill:#131313;}
	.st29{fill:#141414;}
	.st30{fill:#151515;}
	.st31{fill:#161616;}
	.st32{fill:#171717;}
	.st33{fill:#181818;}
	.st34{fill:#191919;}
	.st35{fill:#1A1A1A;}
	.st36{fill:#1B1B1B;}
	.st37{fill:#1C1C1C;}
	.st38{fill:#1D1D1D;}
	.st39{fill:#1E1E1E;}
	.st40{fill:#1F1F1F;}
	.st41{fill:#202020;}
	.st42{fill:#212121;}
	.st43{fill:#222222;}
	.st44{fill:#232323;}
	.st45{fill:#242424;}
	.st46{fill:#252525;}
	.st47{fill:#262626;}
	.st48{fill:#272727;}
	.st49{fill:#282828;}
	.st50{fill:#292929;}
	.st51{fill:#2A2A2A;}
	.st52{fill:#2B2B2B;}
	.st53{fill:#2C2C2C;}
	.st54{fill:#2D2D2D;}
	.st55{fill:#2E2E2E;}
	.st56{fill:#2F2F2F;}
	.st57{fill:#303030;}
	.st58{fill:#313131;}
	.st59{fill:#323232;}
	.st60{fill:#333333;}
	.st61{fill:#343434;}
	.st62{fill:#353535;}
	.st63{fill:#363636;}
	.st64{fill:#373737;}
	.st65{fill:#383838;}
	.st66{fill:#393939;}
	.st67{fill:#3A3A3A;}
	.st68{fill:#3B3B3B;}
	.st69{fill:#3C3C3C;}
	.st70{fill:#3D3D3D;}
	.st71{fill:#3E3E3E;}
	.st72{fill:#3F3F3F;}
	.st73{fill:#404040;}
	.st74{fill:#414141;}
	.st75{fill:#424242;}
	.st76{fill:#434343;}
	.st77{fill:#444444;}
	.st78{fill:#454545;}
	.st79{fill:#464646;}
	.st80{fill:#474747;}
	.st81{fill:#484848;}
	.st82{fill:#494949;}
	.st83{fill:#4A4A4A;}
	.st84{fill:#4B4B4B;}
	.st85{fill:#4C4C4C;}
	.st86{fill:#4D4D4D;}
	.st87{fill:#4E4E4E;}
	.st88{fill:#4F4F4F;}
	.st89{fill:#505050;}
	.st90{fill:#515151;}
	.st91{fill:#525252;}
	.st92{fill:#535353;}
	.st93{fill:#545454;}
	.st94{fill:#555555;}
	.st95{fill:#565656;}
	.st96{fill:#575757;}
	.st97{fill:#585858;}
	.st98{fill:#595959;}
	.st99{fill:#5A5A5A;}
	.st100{fill:#5B5B5B;}
	.st101{fill:#5C5C5C;}
	.st102{fill:#5D5D5D;}
	.st103{fill:#5E5E5E;}
	.st104{fill:#5F5F5F;}
	.st105{fill:#606060;}
	.st106{fill:#616161;}
	.st107{fill:#626262;}
	.st108{fill:#636363;}
	.st109{fill:#646464;}
	.st110{fill:#656565;}
	.st111{fill:#666666;}
	.st112{fill:#676767;}
	.st113{fill:#686868;}
	.st114{fill:#696969;}
	.st115{fill:#6A6A6A;}
	.st116{fill:#6B6B6B;}
	.st117{fill:#6C6C6C;}
	.st118{fill:#6D6D6D;}
	.st119{fill:#6E6E6E;}
	.st120{fill:#6F6F6F;}
	.st121{fill:#707070;}
	.st122{fill:#717171;}
	.st123{fill:#727272;}
	.st124{fill:#747474;}
	.st125{fill:#757575;}
	.st126{fill:#767676;}
	.st127{fill:#777777;}
	.st128{fill:#787878;}
	.st129{fill:#797979;}
	.st130{fill:#7A7A7A;}
	.st131{fill:#7B7B7B;}
	.st132{fill:#7C7C7C;}
	.st133{fill:#7D7D7D;}
	.st134{fill:#7E7E7E;}
	.st135{fill:#7F7F7F;}
	.st136{fill:#808080;}
	.st137{fill:#818181;}
	.st138{fill:#828282;}
	.st139{fill:#838383;}
	.st140{fill:#848484;}
	.st141{fill:#858585;}
	.st142{fill:#868686;}
	.st143{fill:#878787;}
	.st144{fill:#888888;}
	.st145{fill:#898989;}
	.st146{fill:#8A8A8A;}
	.st147{fill:#8B8B8B;}
	.st148{fill:#8C8C8C;}
	.st149{fill:#8D8D8D;}
	.st150{fill:#8E8E8E;}
	.st151{fill:#8F8F8F;}
	.st152{fill:#909090;}
	.st153{fill:#919191;}
	.st154{fill:#929292;}
	.st155{fill:#939393;}
	.st156{fill:#949494;}
	.st157{fill:#959595;}
	.st158{fill:#969696;}
	.st159{fill:#979797;}
	.st160{fill:#989898;}
	.st161{fill:#999999;}
	.st162{fill:#9A9A9A;}
	.st163{fill:#9B9B9B;}
	.st164{fill:#9C9C9C;}
	.st165{fill:#9D9D9D;}
	.st166{fill:#9E9E9E;}
	.st167{fill:#9F9F9F;}
	.st168{fill:#A0A0A0;}
	.st169{fill:#A1A1A1;}
	.st170{fill:#A2A2A2;}
	.st171{fill:#A3A3A3;}
	.st172{fill:#A4A4A4;}
	.st173{fill:#A5A5A5;}
	.st174{fill:#A6A6A6;}
	.st175{fill:#A7A7A7;}
	.st176{fill:#A8A8A8;}
	.st177{fill:#A9A9A9;}
	.st178{fill:#AAAAAA;}
	.st179{fill:#ABABAB;}
	.st180{fill:#ACACAC;}
	.st181{fill:#ADADAD;}
	.st182{fill:#AEAEAE;}
	.st183{fill:#AFAFAF;}
	.st184{fill:#B0B0B0;}
	.st185{fill:#B1B1B1;}
	.st186{fill:#B2B2B2;}
	.st187{fill:#B3B3B3;}
	.st188{fill:#B4B4B4;}
	.st189{fill:#B5B5B5;}
	.st190{fill:#B6B6B6;}
	.st191{fill:#B7B7B7;}
	.st192{fill:#B8B8B8;}
	.st193{fill:#B9B9B9;}
	.st194{fill:#BABABA;}
	.st195{fill:#BBBBBB;}
	.st196{fill:#BCBCBC;}
	.st197{fill:#BDBDBD;}
	.st198{fill:#BEBEBE;}
	.st199{fill:#BFBFBF;}
	.st200{fill:#C0C0C0;}
	.st201{fill:#C1C1C1;}
	.st202{fill:#C2C2C2;}
	.st203{fill:#C3C3C3;}
	.st204{fill:#C4C4C4;}
	.st205{fill:#C5C5C5;}
	.st206{fill:#C6C6C6;}
	.st207{fill:#C7C7C7;}
	.st208{fill:#C8C8C8;}
	.st209{fill:#C9C9C9;}
	.st210{fill:#CACACA;}
	.st211{fill:#CBCBCB;}
	.st212{fill:#CCCCCC;}
	.st213{fill:#CDCDCD;}
	.st214{fill:#CECECE;}
	.st215{fill:#CFCFCF;}
	.st216{fill:#D0D0D0;}
	.st217{fill:#D1D1D1;}
	.st218{fill:#D2D2D2;}
	.st219{fill:#D3D3D3;}
	.st220{fill:#D4D4D4;}
	.st221{fill:#D5D5D5;}
	.st222{fill:#D6D6D6;}
	.st223{fill:#D7D7D7;}
	.st224{fill:#D8D8D8;}
	.st225{fill:#D9D9D9;}
	.st226{fill:#DADADA;}
	.st227{fill:#DBDBDB;}
	.st228{fill:#DCDCDC;}
	.st229{fill:#DDDDDD;}
	.st230{fill:#DEDEDE;}
	.st231{fill:#DFDFDF;}
	.st232{fill:#E0E0E0;}
	.st233{fill:#E1E1E1;}
	.st234{fill:#E2E2E2;}
	.st235{fill:#E3E3E3;}
	.st236{fill:#E4E4E4;}
	.st237{fill:#E5E5E5;}
	.st238{opacity:0.66;}
	.st239{clip-path:url(#SVGID_6_);}
	.st240{opacity:0.9;}
	.st241{clip-path:url(#SVGID_8_);}
</style>
<title>Artboard 1100</title>
<g>
	<g id="Layer_1_1_">
		<g id="Knives_book">
			<g class="st0">
				<path d="M774.3,820.5c0,10.5-44.1,17.5-98.4,17.5H208.4c-54.4,0-98.4-7-98.4-17.5l0,0c0-10.5,44.1-17.5,98.4-17.5h467.4
					C730.2,803,774.3,810,774.3,820.5L774.3,820.5z"/>
				
					<image style="overflow:visible;enable-background:new    ;" width="796" height="64" xlink:href="4FCBD9347D91F6F6.png"  transform="matrix(1 0 0 1 44 789)">
				</image>
			</g>
			<g>
				<defs>
					<path id="SVGID_1_" d="M713,774c-1,6.3-9.7,45.7-52,46H156.3c-3.2,0-5.7-2.6-5.7-5.7c0,0,0,0,0-0.1l0.1-765.9
						c-0.1-2.9,2.3-5.3,5.2-5.3c0.1,0,0.3,0,0.4,0H660c35,1.7,51.7,28.7,52.7,54.6L713,774z"/>
				</defs>
				<clipPath id="SVGID_2_">
					<use xlink:href="#SVGID_1_"  style="overflow:visible;"/>
				</clipPath>
				<g class="st1">
					<rect x="150.6" y="43" class="st2" width="6.9" height="777"/>
					<rect x="157.4" y="43" class="st3" width="6.9" height="777"/>
					<rect x="164.3" y="43" class="st4" width="6.9" height="777"/>
					<rect x="171.2" y="43" class="st5" width="6.9" height="777"/>
					<rect x="178.1" y="43" class="st6" width="6.9" height="777"/>
					<rect x="185" y="43" class="st7" width="6.9" height="777"/>
					<rect x="191.9" y="43" class="st7" width="86.8" height="777"/>
					<rect x="278.8" y="43" class="st6" width="86.9" height="777"/>
					<rect x="365.6" y="43" class="st5" width="86.9" height="777"/>
					<rect x="452.5" y="43" class="st4" width="86.9" height="777"/>
					<rect x="539.3" y="43" class="st3" width="86.8" height="777"/>
					<rect x="626.2" y="43" class="st2" width="86.8" height="777"/>
				</g>
			</g>
			
				<image style="overflow:visible;enable-background:new    ;" width="38" height="779" xlink:href="4FCBD9347D91F6FA.png"  transform="matrix(1 0 0 1 160 42)">
			</image>
			<g class="st8">
				<g>
					<defs>
						<rect id="SVGID_3_" x="157" y="43" width="6" height="777"/>
					</defs>
					<clipPath id="SVGID_4_">
						<use xlink:href="#SVGID_3_"  style="overflow:visible;"/>
					</clipPath>
					<g class="st9">
						<rect x="157" y="43" width="0" height="777"/>
						<rect x="157" y="43" class="st10" width="0" height="777"/>
						<rect x="157" y="43" class="st11" width="0" height="777"/>
						<rect x="157" y="43" class="st12" width="0" height="777"/>
						<rect x="157.1" y="43" class="st13" width="0" height="777"/>
						<rect x="157.1" y="43" class="st14" width="0" height="777"/>
						<rect x="157.1" y="43" class="st15" width="0" height="777"/>
						<rect x="157.1" y="43" class="st16" width="0" height="777"/>
						<rect x="157.1" y="43" class="st17" width="0" height="777"/>
						<rect x="157.1" y="43" class="st18" width="0" height="777"/>
						<rect x="157.1" y="43" class="st19" width="0" height="777"/>
						<rect x="157.1" y="43" class="st20" width="0" height="777"/>
						<rect x="157.2" y="43" class="st21" width="0" height="777"/>
						<rect x="157.2" y="43" class="st22" width="0" height="777"/>
						<rect x="157.2" y="43" class="st23" width="0" height="777"/>
						<rect x="157.2" y="43" class="st24" width="0" height="777"/>
						<rect x="157.2" y="43" class="st25" width="0" height="777"/>
						<rect x="157.2" y="43" class="st26" width="0" height="777"/>
						<rect x="157.2" y="43" class="st27" width="0" height="777"/>
						<rect x="157.2" y="43" class="st28" width="0" height="777"/>
						<rect x="157.3" y="43" class="st29" width="0" height="777"/>
						<rect x="157.3" y="43" class="st30" width="0" height="777"/>
						<rect x="157.3" y="43" class="st31" width="0" height="777"/>
						<rect x="157.3" y="43" class="st32" width="0" height="777"/>
						<rect x="157.3" y="43" class="st33" width="0" height="777"/>
						<rect x="157.3" y="43" class="st34" width="0" height="777"/>
						<rect x="157.3" y="43" class="st35" width="0" height="777"/>
						<rect x="157.4" y="43" class="st36" width="0" height="777"/>
						<rect x="157.4" y="43" class="st37" width="0" height="777"/>
						<rect x="157.4" y="43" class="st38" width="0" height="777"/>
						<rect x="157.4" y="43" class="st39" width="0" height="777"/>
						<rect x="157.4" y="43" class="st40" width="0" height="777"/>
						<rect x="157.4" y="43" class="st41" width="0" height="777"/>
						<rect x="157.4" y="43" class="st42" width="0" height="777"/>
						<rect x="157.4" y="43" class="st43" width="0" height="777"/>
						<rect x="157.5" y="43" class="st44" width="0" height="777"/>
						<rect x="157.5" y="43" class="st45" width="0" height="777"/>
						<rect x="157.5" y="43" class="st46" width="0" height="777"/>
						<rect x="157.5" y="43" class="st47" width="0" height="777"/>
						<rect x="157.5" y="43" class="st48" width="0" height="777"/>
						<rect x="157.5" y="43" class="st49" width="0" height="777"/>
						<rect x="157.5" y="43" class="st50" width="0" height="777"/>
						<rect x="157.6" y="43" class="st51" width="0" height="777"/>
						<rect x="157.6" y="43" class="st52" width="0" height="777"/>
						<rect x="157.6" y="43" class="st53" width="0" height="777"/>
						<rect x="157.6" y="43" class="st54" width="0" height="777"/>
						<rect x="157.6" y="43" class="st55" width="0" height="777"/>
						<rect x="157.6" y="43" class="st56" width="0" height="777"/>
						<rect x="157.6" y="43" class="st57" width="0" height="777"/>
						<rect x="157.6" y="43" class="st58" width="0" height="777"/>
						<rect x="157.7" y="43" class="st59" width="0" height="777"/>
						<rect x="157.7" y="43" class="st60" width="0" height="777"/>
						<rect x="157.7" y="43" class="st61" width="0" height="777"/>
						<rect x="157.7" y="43" class="st62" width="0" height="777"/>
						<rect x="157.7" y="43" class="st63" width="0" height="777"/>
						<rect x="157.7" y="43" class="st64" width="0" height="777"/>
						<rect x="157.7" y="43" class="st65" width="0" height="777"/>
						<rect x="157.8" y="43" class="st66" width="0" height="777"/>
						<rect x="157.8" y="43" class="st67" width="0" height="777"/>
						<rect x="157.8" y="43" class="st68" width="0" height="777"/>
						<rect x="157.8" y="43" class="st69" width="0" height="777"/>
						<rect x="157.8" y="43" class="st70" width="0" height="777"/>
						<rect x="157.8" y="43" class="st71" width="0" height="777"/>
						<rect x="157.8" y="43" class="st72" width="0" height="777"/>
						<rect x="157.9" y="43" class="st73" width="0" height="777"/>
						<rect x="157.9" y="43" class="st74" width="0" height="777"/>
						<rect x="157.9" y="43" class="st75" width="0" height="777"/>
						<rect x="157.9" y="43" class="st76" width="0" height="777"/>
						<rect x="157.9" y="43" class="st77" width="0" height="777"/>
						<rect x="157.9" y="43" class="st78" width="0" height="777"/>
						<rect x="157.9" y="43" class="st79" width="0" height="777"/>
						<rect x="157.9" y="43" class="st80" width="0" height="777"/>
						<rect x="157.9" y="43" class="st81" width="0" height="777"/>
						<rect x="158" y="43" class="st82" width="0" height="777"/>
						<rect x="158" y="43" class="st83" width="0" height="777"/>
						<rect x="158" y="43" class="st84" width="0" height="777"/>
						<rect x="158" y="43" class="st85" width="0" height="777"/>
						<rect x="158" y="43" class="st86" width="0" height="777"/>
						<rect x="158" y="43" class="st87" width="0" height="777"/>
						<rect x="158.1" y="43" class="st88" width="0" height="777"/>
						<rect x="158.1" y="43" class="st89" width="0" height="777"/>
						<rect x="158.1" y="43" class="st90" width="0" height="777"/>
						<rect x="158.1" y="43" class="st91" width="0" height="777"/>
						<rect x="158.1" y="43" class="st92" width="0" height="777"/>
						<rect x="158.1" y="43" class="st93" width="0" height="777"/>
						<rect x="158.1" y="43" class="st94" width="0" height="777"/>
						<rect x="158.1" y="43" class="st95" width="0" height="777"/>
						<rect x="158.1" y="43" class="st96" width="0" height="777"/>
						<rect x="158.2" y="43" class="st97" width="0" height="777"/>
						<rect x="158.2" y="43" class="st98" width="0" height="777"/>
						<rect x="158.2" y="43" class="st99" width="0" height="777"/>
						<rect x="158.2" y="43" class="st100" width="0" height="777"/>
						<rect x="158.2" y="43" class="st101" width="0" height="777"/>
						<rect x="158.2" y="43" class="st102" width="0" height="777"/>
						<rect x="158.2" y="43" class="st103" width="0" height="777"/>
						<rect x="158.3" y="43" class="st104" width="0" height="777"/>
						<rect x="158.3" y="43" class="st105" width="0" height="777"/>
						<rect x="158.3" y="43" class="st106" width="0" height="777"/>
						<rect x="158.3" y="43" class="st107" width="0" height="777"/>
						<rect x="158.3" y="43" class="st108" width="0" height="777"/>
						<rect x="158.3" y="43" class="st109" width="0" height="777"/>
						<rect x="158.3" y="43" class="st110" width="0" height="777"/>
						<rect x="158.4" y="43" class="st111" width="0" height="777"/>
						<rect x="158.4" y="43" class="st112" width="0" height="777"/>
						<rect x="158.4" y="43" class="st113" width="0" height="777"/>
						<rect x="158.4" y="43" class="st114" width="0" height="777"/>
						<rect x="158.4" y="43" class="st115" width="0" height="777"/>
						<rect x="158.4" y="43" class="st116" width="0" height="777"/>
						<rect x="158.4" y="43" class="st117" width="0" height="777"/>
						<rect x="158.4" y="43" class="st118" width="0" height="777"/>
						<rect x="158.5" y="43" class="st119" width="0" height="777"/>
						<rect x="158.5" y="43" class="st120" width="0" height="777"/>
						<rect x="158.5" y="43" class="st121" width="0" height="777"/>
						<rect x="158.5" y="43" class="st122" width="0" height="777"/>
						<rect x="158.5" y="43" class="st123" width="0" height="777"/>
						<rect x="158.5" y="43" class="st124" width="0" height="777"/>
						<rect x="158.5" y="43" class="st125" width="0" height="777"/>
						<rect x="158.6" y="43" class="st126" width="0" height="777"/>
						<rect x="158.6" y="43" class="st127" width="0" height="777"/>
						<rect x="158.6" y="43" class="st128" width="0" height="777"/>
						<rect x="158.6" y="43" class="st129" width="0" height="777"/>
						<rect x="158.6" y="43" class="st130" width="0" height="777"/>
						<rect x="158.6" y="43" class="st131" width="0" height="777"/>
						<rect x="158.6" y="43" class="st132" width="0" height="777"/>
						<rect x="158.6" y="43" class="st133" width="0" height="777"/>
						<rect x="158.7" y="43" class="st134" width="0" height="777"/>
						<rect x="158.7" y="43" class="st135" width="0" height="777"/>
						<rect x="158.7" y="43" class="st136" width="0" height="777"/>
						<rect x="158.7" y="43" class="st137" width="0" height="777"/>
						<rect x="158.7" y="43" class="st138" width="0" height="777"/>
						<rect x="158.7" y="43" class="st139" width="0" height="777"/>
						<rect x="158.7" y="43" class="st140" width="0" height="777"/>
						<rect x="158.8" y="43" class="st141" width="0" height="777"/>
						<rect x="158.8" y="43" class="st142" width="0" height="777"/>
						<rect x="158.8" y="43" class="st143" width="0" height="777"/>
						<rect x="158.8" y="43" class="st144" width="0" height="777"/>
						<rect x="158.8" y="43" class="st145" width="0" height="777"/>
						<rect x="158.8" y="43" class="st146" width="0" height="777"/>
						<rect x="158.8" y="43" class="st147" width="0" height="777"/>
						<rect x="158.8" y="43" class="st148" width="0" height="777"/>
						<rect x="158.9" y="43" class="st149" width="0" height="777"/>
						<rect x="158.9" y="43" class="st150" width="0" height="777"/>
						<rect x="158.9" y="43" class="st151" width="0" height="777"/>
						<rect x="158.9" y="43" class="st152" width="0" height="777"/>
						<rect x="158.9" y="43" class="st153" width="0" height="777"/>
						<rect x="158.9" y="43" class="st154" width="0" height="777"/>
						<rect x="158.9" y="43" class="st155" width="0" height="777"/>
						<rect x="158.9" y="43" class="st156" width="0" height="777"/>
						<rect x="159" y="43" class="st157" width="0" height="777"/>
						<rect x="159" y="43" class="st158" width="0" height="777"/>
						<rect x="159" y="43" class="st159" width="0" height="777"/>
						<rect x="159" y="43" class="st160" width="0" height="777"/>
						<rect x="159" y="43" class="st161" width="0" height="777"/>
						<rect x="159" y="43" class="st162" width="0" height="777"/>
						<rect x="159" y="43" class="st163" width="0" height="777"/>
						<rect x="159.1" y="43" class="st164" width="0" height="777"/>
						<rect x="159.1" y="43" class="st165" width="0" height="777"/>
						<rect x="159.1" y="43" class="st166" width="0" height="777"/>
						<rect x="159.1" y="43" class="st167" width="0" height="777"/>
						<rect x="159.1" y="43" class="st168" width="0" height="777"/>
						<rect x="159.1" y="43" class="st169" width="0" height="777"/>
						<rect x="159.1" y="43" class="st170" width="0" height="777"/>
						<rect x="159.1" y="43" class="st171" width="0" height="777"/>
						<rect x="159.2" y="43" class="st172" width="0" height="777"/>
						<rect x="159.2" y="43" class="st173" width="0" height="777"/>
						<rect x="159.2" y="43" class="st174" width="0" height="777"/>
						<rect x="159.2" y="43" class="st175" width="0" height="777"/>
						<rect x="159.2" y="43" class="st176" width="0" height="777"/>
						<rect x="159.2" y="43" class="st177" width="0" height="777"/>
						<rect x="159.2" y="43" class="st178" width="0" height="777"/>
						<rect x="159.2" y="43" class="st179" width="0" height="777"/>
						<rect x="159.3" y="43" class="st180" width="0" height="777"/>
						<rect x="159.3" y="43" class="st181" width="0" height="777"/>
						<rect x="159.3" y="43" class="st182" width="0" height="777"/>
						<rect x="159.3" y="43" class="st183" width="0" height="777"/>
						<rect x="159.3" y="43" class="st184" width="0" height="777"/>
						<rect x="159.3" y="43" class="st185" width="0" height="777"/>
						<rect x="159.4" y="43" class="st186" width="0" height="777"/>
						<rect x="159.4" y="43" class="st187" width="0" height="777"/>
						<rect x="159.4" y="43" class="st188" width="0" height="777"/>
						<rect x="159.4" y="43" class="st189" width="0" height="777"/>
						<rect x="159.4" y="43" class="st190" width="0" height="777"/>
						<rect x="159.4" y="43" class="st191" width="0" height="777"/>
						<rect x="159.4" y="43" class="st192" width="0" height="777"/>
						<rect x="159.4" y="43" class="st193" width="0" height="777"/>
						<rect x="159.4" y="43" class="st194" width="0" height="777"/>
						<rect x="159.5" y="43" class="st195" width="0" height="777"/>
						<rect x="159.5" y="43" class="st196" width="0" height="777"/>
						<rect x="159.5" y="43" class="st197" width="0" height="777"/>
						<rect x="159.5" y="43" class="st198" width="0" height="777"/>
						<rect x="159.5" y="43" class="st199" width="0" height="777"/>
						<rect x="159.5" y="43" class="st200" width="0" height="777"/>
						<rect x="159.6" y="43" class="st201" width="0" height="777"/>
						<rect x="159.6" y="43" class="st202" width="0" height="777"/>
						<rect x="159.6" y="43" class="st203" width="0" height="777"/>
						<rect x="159.6" y="43" class="st204" width="0" height="777"/>
						<rect x="159.6" y="43" class="st205" width="0" height="777"/>
						<rect x="159.6" y="43" class="st206" width="0" height="777"/>
						<rect x="159.6" y="43" class="st207" width="0" height="777"/>
						<rect x="159.6" y="43" class="st208" width="0" height="777"/>
						<rect x="159.6" y="43" class="st209" width="0" height="777"/>
						<rect x="159.7" y="43" class="st210" width="0" height="777"/>
						<rect x="159.7" y="43" class="st211" width="0" height="777"/>
						<rect x="159.7" y="43" class="st212" width="0" height="777"/>
						<rect x="159.7" y="43" class="st213" width="0" height="777"/>
						<rect x="159.7" y="43" class="st214" width="0" height="777"/>
						<rect x="159.7" y="43" class="st215" width="0" height="777"/>
						<rect x="159.7" y="43" class="st216" width="0" height="777"/>
						<rect x="159.8" y="43" class="st217" width="0" height="777"/>
						<rect x="159.8" y="43" class="st218" width="0" height="777"/>
						<rect x="159.8" y="43" class="st219" width="0" height="777"/>
						<rect x="159.8" y="43" class="st220" width="0" height="777"/>
						<rect x="159.8" y="43" class="st221" width="0" height="777"/>
						<rect x="159.8" y="43" class="st222" width="0" height="777"/>
						<rect x="159.8" y="43" class="st223" width="0" height="777"/>
						<rect x="159.9" y="43" class="st224" width="0" height="777"/>
						<rect x="159.9" y="43" class="st225" width="0" height="777"/>
						<rect x="159.9" y="43" class="st226" width="0" height="777"/>
						<rect x="159.9" y="43" class="st227" width="0" height="777"/>
						<rect x="159.9" y="43" class="st228" width="0" height="777"/>
						<rect x="159.9" y="43" class="st229" width="0" height="777"/>
						<rect x="159.9" y="43" class="st230" width="0" height="777"/>
						<rect x="159.9" y="43" class="st231" width="0" height="777"/>
						<rect x="160" y="43" class="st232" width="0" height="777"/>
						<rect x="160" y="43" class="st233" width="0" height="777"/>
						<rect x="160" y="43" class="st234" width="0" height="777"/>
						<rect x="160" y="43" class="st235" width="0" height="777"/>
						<rect x="160" y="43" class="st236" width="0" height="777"/>
						<rect x="160" y="43" class="st237" width="0" height="777"/>
						<rect x="160" y="43" class="st7" width="0" height="777"/>
						<rect x="160.1" y="43" class="st7" width="0" height="777"/>
						<rect x="160.1" y="43" class="st237" width="0" height="777"/>
						<rect x="160.1" y="43" class="st236" width="0" height="777"/>
						<rect x="160.1" y="43" class="st235" width="0" height="777"/>
						<rect x="160.1" y="43" class="st234" width="0" height="777"/>
						<rect x="160.1" y="43" class="st233" width="0" height="777"/>
						<rect x="160.1" y="43" class="st232" width="0" height="777"/>
						<rect x="160.1" y="43" class="st231" width="0" height="777"/>
						<rect x="160.1" y="43" class="st230" width="0" height="777"/>
						<rect x="160.2" y="43" class="st229" width="0" height="777"/>
						<rect x="160.2" y="43" class="st228" width="0" height="777"/>
						<rect x="160.2" y="43" class="st227" width="0" height="777"/>
						<rect x="160.2" y="43" class="st226" width="0" height="777"/>
						<rect x="160.2" y="43" class="st225" width="0" height="777"/>
						<rect x="160.2" y="43" class="st224" width="0" height="777"/>
						<rect x="160.2" y="43" class="st223" width="0" height="777"/>
						<rect x="160.2" y="43" class="st222" width="0" height="777"/>
						<rect x="160.3" y="43" class="st221" width="0" height="777"/>
						<rect x="160.3" y="43" class="st220" width="0" height="777"/>
						<rect x="160.3" y="43" class="st219" width="0" height="777"/>
						<rect x="160.3" y="43" class="st218" width="0" height="777"/>
						<rect x="160.3" y="43" class="st217" width="0" height="777"/>
						<rect x="160.3" y="43" class="st216" width="0" height="777"/>
						<rect x="160.3" y="43" class="st215" width="0" height="777"/>
						<rect x="160.4" y="43" class="st214" width="0" height="777"/>
						<rect x="160.4" y="43" class="st213" width="0" height="777"/>
						<rect x="160.4" y="43" class="st212" width="0" height="777"/>
						<rect x="160.4" y="43" class="st211" width="0" height="777"/>
						<rect x="160.4" y="43" class="st210" width="0" height="777"/>
						<rect x="160.4" y="43" class="st209" width="0" height="777"/>
						<rect x="160.4" y="43" class="st208" width="0" height="777"/>
						<rect x="160.4" y="43" class="st207" width="0" height="777"/>
						<rect x="160.5" y="43" class="st206" width="0" height="777"/>
						<rect x="160.5" y="43" class="st205" width="0" height="777"/>
						<rect x="160.5" y="43" class="st204" width="0" height="777"/>
						<rect x="160.5" y="43" class="st203" width="0" height="777"/>
						<rect x="160.5" y="43" class="st202" width="0" height="777"/>
						<rect x="160.5" y="43" class="st201" width="0" height="777"/>
						<rect x="160.5" y="43" class="st200" width="0" height="777"/>
						<rect x="160.6" y="43" class="st199" width="0" height="777"/>
						<rect x="160.6" y="43" class="st198" width="0" height="777"/>
						<rect x="160.6" y="43" class="st197" width="0" height="777"/>
						<rect x="160.6" y="43" class="st196" width="0" height="777"/>
						<rect x="160.6" y="43" class="st195" width="0" height="777"/>
						<rect x="160.6" y="43" class="st194" width="0" height="777"/>
						<rect x="160.6" y="43" class="st193" width="0" height="777"/>
						<rect x="160.6" y="43" class="st192" width="0" height="777"/>
						<rect x="160.6" y="43" class="st191" width="0" height="777"/>
						<rect x="160.7" y="43" class="st190" width="0" height="777"/>
						<rect x="160.7" y="43" class="st189" width="0" height="777"/>
						<rect x="160.7" y="43" class="st188" width="0" height="777"/>
						<rect x="160.7" y="43" class="st187" width="0" height="777"/>
						<rect x="160.7" y="43" class="st186" width="0" height="777"/>
						<rect x="160.7" y="43" class="st185" width="0" height="777"/>
						<rect x="160.7" y="43" class="st184" width="0" height="777"/>
						<rect x="160.8" y="43" class="st183" width="0" height="777"/>
						<rect x="160.8" y="43" class="st182" width="0" height="777"/>
						<rect x="160.8" y="43" class="st181" width="0" height="777"/>
						<rect x="160.8" y="43" class="st180" width="0" height="777"/>
						<rect x="160.8" y="43" class="st179" width="0" height="777"/>
						<rect x="160.8" y="43" class="st178" width="0" height="777"/>
						<rect x="160.8" y="43" class="st177" width="0" height="777"/>
						<rect x="160.8" y="43" class="st176" width="0" height="777"/>
						<rect x="160.9" y="43" class="st175" width="0" height="777"/>
						<rect x="160.9" y="43" class="st174" width="0" height="777"/>
						<rect x="160.9" y="43" class="st173" width="0" height="777"/>
						<rect x="160.9" y="43" class="st172" width="0" height="777"/>
						<rect x="160.9" y="43" class="st171" width="0" height="777"/>
						<rect x="160.9" y="43" class="st170" width="0" height="777"/>
						<rect x="160.9" y="43" class="st169" width="0" height="777"/>
						<rect x="160.9" y="43" class="st168" width="0" height="777"/>
						<rect x="161" y="43" class="st167" width="0" height="777"/>
						<rect x="161" y="43" class="st166" width="0" height="777"/>
						<rect x="161" y="43" class="st165" width="0" height="777"/>
						<rect x="161" y="43" class="st164" width="0" height="777"/>
						<rect x="161" y="43" class="st163" width="0" height="777"/>
						<rect x="161" y="43" class="st162" width="0" height="777"/>
						<rect x="161" y="43" class="st161" width="0" height="777"/>
						<rect x="161.1" y="43" class="st160" width="0" height="777"/>
						<rect x="161.1" y="43" class="st159" width="0" height="777"/>
						<rect x="161.1" y="43" class="st158" width="0" height="777"/>
						<rect x="161.1" y="43" class="st157" width="0" height="777"/>
						<rect x="161.1" y="43" class="st156" width="0" height="777"/>
						<rect x="161.1" y="43" class="st155" width="0" height="777"/>
						<rect x="161.1" y="43" class="st154" width="0" height="777"/>
						<rect x="161.1" y="43" class="st153" width="0" height="777"/>
						<rect x="161.1" y="43" class="st152" width="0" height="777"/>
						<rect x="161.2" y="43" class="st151" width="0" height="777"/>
						<rect x="161.2" y="43" class="st150" width="0" height="777"/>
						<rect x="161.2" y="43" class="st149" width="0" height="777"/>
						<rect x="161.2" y="43" class="st148" width="0" height="777"/>
						<rect x="161.2" y="43" class="st147" width="0" height="777"/>
						<rect x="161.2" y="43" class="st146" width="0" height="777"/>
						<rect x="161.2" y="43" class="st145" width="0" height="777"/>
						<rect x="161.3" y="43" class="st144" width="0" height="777"/>
						<rect x="161.3" y="43" class="st143" width="0" height="777"/>
						<rect x="161.3" y="43" class="st142" width="0" height="777"/>
						<rect x="161.3" y="43" class="st141" width="0" height="777"/>
						<rect x="161.3" y="43" class="st140" width="0" height="777"/>
						<rect x="161.3" y="43" class="st139" width="0" height="777"/>
						<rect x="161.3" y="43" class="st138" width="0" height="777"/>
						<rect x="161.4" y="43" class="st137" width="0" height="777"/>
						<rect x="161.4" y="43" class="st136" width="0" height="777"/>
						<rect x="161.4" y="43" class="st135" width="0" height="777"/>
						<rect x="161.4" y="43" class="st134" width="0" height="777"/>
						<rect x="161.4" y="43" class="st133" width="0" height="777"/>
						<rect x="161.4" y="43" class="st132" width="0" height="777"/>
						<rect x="161.4" y="43" class="st131" width="0" height="777"/>
						<rect x="161.4" y="43" class="st130" width="0" height="777"/>
						<rect x="161.4" y="43" class="st129" width="0" height="777"/>
						<rect x="161.5" y="43" class="st128" width="0" height="777"/>
						<rect x="161.5" y="43" class="st127" width="0" height="777"/>
						<rect x="161.5" y="43" class="st126" width="0" height="777"/>
						<rect x="161.5" y="43" class="st125" width="0" height="777"/>
						<rect x="161.5" y="43" class="st124" width="0" height="777"/>
						<rect x="161.5" y="43" class="st123" width="0" height="777"/>
						<rect x="161.5" y="43" class="st122" width="0" height="777"/>
						<rect x="161.6" y="43" class="st121" width="0" height="777"/>
						<rect x="161.6" y="43" class="st120" width="0" height="777"/>
						<rect x="161.6" y="43" class="st119" width="0" height="777"/>
						<rect x="161.6" y="43" class="st118" width="0" height="777"/>
						<rect x="161.6" y="43" class="st117" width="0" height="777"/>
						<rect x="161.6" y="43" class="st116" width="0" height="777"/>
						<rect x="161.6" y="43" class="st115" width="0" height="777"/>
						<rect x="161.6" y="43" class="st114" width="0" height="777"/>
						<rect x="161.6" y="43" class="st113" width="0" height="777"/>
						<rect x="161.7" y="43" class="st112" width="0" height="777"/>
						<rect x="161.7" y="43" class="st111" width="0" height="777"/>
						<rect x="161.7" y="43" class="st110" width="0" height="777"/>
						<rect x="161.7" y="43" class="st109" width="0" height="777"/>
						<rect x="161.7" y="43" class="st108" width="0" height="777"/>
						<rect x="161.7" y="43" class="st107" width="0" height="777"/>
						<rect x="161.7" y="43" class="st106" width="0" height="777"/>
						<rect x="161.8" y="43" class="st105" width="0" height="777"/>
						<rect x="161.8" y="43" class="st104" width="0" height="777"/>
						<rect x="161.8" y="43" class="st103" width="0" height="777"/>
						<rect x="161.8" y="43" class="st102" width="0" height="777"/>
						<rect x="161.8" y="43" class="st101" width="0" height="777"/>
						<rect x="161.8" y="43" class="st100" width="0" height="777"/>
						<rect x="161.8" y="43" class="st99" width="0" height="777"/>
						<rect x="161.9" y="43" class="st98" width="0" height="777"/>
						<rect x="161.9" y="43" class="st97" width="0" height="777"/>
						<rect x="161.9" y="43" class="st96" width="0" height="777"/>
						<rect x="161.9" y="43" class="st95" width="0" height="777"/>
						<rect x="161.9" y="43" class="st94" width="0" height="777"/>
						<rect x="161.9" y="43" class="st93" width="0" height="777"/>
						<rect x="161.9" y="43" class="st92" width="0" height="777"/>
						<rect x="161.9" y="43" class="st91" width="0" height="777"/>
						<rect x="161.9" y="43" class="st90" width="0" height="777"/>
						<rect x="162" y="43" class="st89" width="0" height="777"/>
						<rect x="162" y="43" class="st88" width="0" height="777"/>
						<rect x="162" y="43" class="st87" width="0" height="777"/>
						<rect x="162" y="43" class="st86" width="0" height="777"/>
						<rect x="162" y="43" class="st85" width="0" height="777"/>
						<rect x="162" y="43" class="st84" width="0" height="777"/>
						<rect x="162" y="43" class="st83" width="0" height="777"/>
						<rect x="162.1" y="43" class="st82" width="0" height="777"/>
						<rect x="162.1" y="43" class="st81" width="0" height="777"/>
						<rect x="162.1" y="43" class="st80" width="0" height="777"/>
						<rect x="162.1" y="43" class="st79" width="0" height="777"/>
						<rect x="162.1" y="43" class="st78" width="0" height="777"/>
						<rect x="162.1" y="43" class="st77" width="0" height="777"/>
						<rect x="162.1" y="43" class="st76" width="0" height="777"/>
						<rect x="162.1" y="43" class="st75" width="0" height="777"/>
						<rect x="162.1" y="43" class="st74" width="0" height="777"/>
						<rect x="162.2" y="43" class="st73" width="0" height="777"/>
						<rect x="162.2" y="43" class="st72" width="0" height="777"/>
						<rect x="162.2" y="43" class="st71" width="0" height="777"/>
						<rect x="162.2" y="43" class="st70" width="0" height="777"/>
						<rect x="162.2" y="43" class="st69" width="0" height="777"/>
						<rect x="162.2" y="43" class="st68" width="0" height="777"/>
						<rect x="162.2" y="43" class="st67" width="0" height="777"/>
						<rect x="162.3" y="43" class="st66" width="0" height="777"/>
						<rect x="162.3" y="43" class="st65" width="0" height="777"/>
						<rect x="162.3" y="43" class="st64" width="0" height="777"/>
						<rect x="162.3" y="43" class="st63" width="0" height="777"/>
						<rect x="162.3" y="43" class="st62" width="0" height="777"/>
						<rect x="162.3" y="43" class="st61" width="0" height="777"/>
						<rect x="162.3" y="43" class="st60" width="0" height="777"/>
						<rect x="162.4" y="43" class="st59" width="0" height="777"/>
						<rect x="162.4" y="43" class="st58" width="0" height="777"/>
						<rect x="162.4" y="43" class="st57" width="0" height="777"/>
						<rect x="162.4" y="43" class="st56" width="0" height="777"/>
						<rect x="162.4" y="43" class="st55" width="0" height="777"/>
						<rect x="162.4" y="43" class="st54" width="0" height="777"/>
						<rect x="162.4" y="43" class="st53" width="0" height="777"/>
						<rect x="162.4" y="43" class="st52" width="0" height="777"/>
						<rect x="162.4" y="43" class="st51" width="0" height="777"/>
						<rect x="162.5" y="43" class="st50" width="0" height="777"/>
						<rect x="162.5" y="43" class="st49" width="0" height="777"/>
						<rect x="162.5" y="43" class="st48" width="0" height="777"/>
						<rect x="162.5" y="43" class="st47" width="0" height="777"/>
						<rect x="162.5" y="43" class="st46" width="0" height="777"/>
						<rect x="162.5" y="43" class="st45" width="0" height="777"/>
						<rect x="162.5" y="43" class="st44" width="0" height="777"/>
						<rect x="162.6" y="43" class="st43" width="0" height="777"/>
						<rect x="162.6" y="43" class="st42" width="0" height="777"/>
						<rect x="162.6" y="43" class="st41" width="0" height="777"/>
						<rect x="162.6" y="43" class="st40" width="0" height="777"/>
						<rect x="162.6" y="43" class="st39" width="0" height="777"/>
						<rect x="162.6" y="43" class="st38" width="0" height="777"/>
						<rect x="162.6" y="43" class="st37" width="0" height="777"/>
						<rect x="162.6" y="43" class="st36" width="0" height="777"/>
						<rect x="162.6" y="43" class="st35" width="0" height="777"/>
						<rect x="162.7" y="43" class="st34" width="0" height="777"/>
						<rect x="162.7" y="43" class="st33" width="0" height="777"/>
						<rect x="162.7" y="43" class="st32" width="0" height="777"/>
						<rect x="162.7" y="43" class="st31" width="0" height="777"/>
						<rect x="162.7" y="43" class="st30" width="0" height="777"/>
						<rect x="162.7" y="43" class="st29" width="0" height="777"/>
						<rect x="162.7" y="43" class="st28" width="0" height="777"/>
						<rect x="162.8" y="43" class="st27" width="0" height="777"/>
						<rect x="162.8" y="43" class="st26" width="0" height="777"/>
						<rect x="162.8" y="43" class="st25" width="0" height="777"/>
						<rect x="162.8" y="43" class="st24" width="0" height="777"/>
						<rect x="162.8" y="43" class="st23" width="0" height="777"/>
						<rect x="162.8" y="43" class="st22" width="0" height="777"/>
						<rect x="162.8" y="43" class="st21" width="0" height="777"/>
						<rect x="162.9" y="43" class="st20" width="0" height="777"/>
						<rect x="162.9" y="43" class="st19" width="0" height="777"/>
						<rect x="162.9" y="43" class="st18" width="0" height="777"/>
						<rect x="162.9" y="43" class="st17" width="0" height="777"/>
						<rect x="162.9" y="43" class="st16" width="0" height="777"/>
						<rect x="162.9" y="43" class="st15" width="0" height="777"/>
						<rect x="162.9" y="43" class="st14" width="0" height="777"/>
						<rect x="162.9" y="43" class="st13" width="0" height="777"/>
						<rect x="162.9" y="43" class="st12" width="0" height="777"/>
						<rect x="163" y="43" class="st11" width="0" height="777"/>
						<rect x="163" y="43" class="st10" width="0" height="777"/>
						<rect x="163" y="43" width="0" height="777"/>
					</g>
				</g>
			</g>
			<g transform="translate(160.26 42.11) scale(0.37)">
				
					<image style="overflow:visible;enable-background:new    ;" width="1491" height="2100" id="image" xlink:href="4FCBD9347D91F6FD.png"  transform="matrix(0.37 0 0 0.37 160.26 42.11)">
				</image>
			</g>
			<g transform="translate(160 42.23) scale(0.37)">
				
					<image style="overflow:visible;enable-background:new    ;" width="1491" height="2100" id="image_2_" xlink:href="4FCBD9347D91F6FE.png"  transform="matrix(0.37 0 0 0.37 160 42.23)">
				</image>
			</g>
			<g class="st238">
				<g>
					<defs>
						<path id="SVGID_5_" d="M161.6,820.2c0,0-6.9,0.7-9-1.1c-2-1.7-2-2.7-2.2-9.4L150.5,48c0-1.9,1-3.7,2.7-4.8
							c2.2-1.7,8.5-1.1,8.5-1.1C162.1,42.1,161.6,820.2,161.6,820.2z"/>
					</defs>
					<clipPath id="SVGID_6_">
						<use xlink:href="#SVGID_5_"  style="overflow:visible;"/>
					</clipPath>
					<g class="st239">
						<g id="Knives_and_Wood_Carving_full_cover">
							<g id="Knives_and_Wood_Carving_full_cover-2" transform="translate(-433.9 42.11) scale(0.36)">
								
									<image style="overflow:visible;enable-background:new    ;" width="3197" height="2175" id="image-2" xlink:href="4FCBD9347D91F6FC.png"  transform="matrix(0.36 0 0 0.36 -433.9 42.11)">
								</image>
							</g>
						</g>
					</g>
				</g>
			</g>
			<g class="st240">
				<g>
					<defs>
						<path id="SVGID_7_" d="M161.6,820.2c0,0-6.9,0.7-9-1.1c-2-1.7-2-2.7-2.2-9.4L150.5,48c0-1.9,1-3.7,2.7-4.8
							c2.2-1.7,8.5-1.1,8.5-1.1C162.1,42.1,161.6,820.2,161.6,820.2z"/>
					</defs>
					<clipPath id="SVGID_8_">
						<use xlink:href="#SVGID_7_"  style="overflow:visible;"/>
					</clipPath>
					<g class="st241">
						<g id="Knives_and_Wood_Carving_full_cover-3">
							<g id="Knives_and_Wood_Carving_full_cover-4" transform="translate(-433.9 42.11) scale(0.36)">
								
									<image style="overflow:visible;enable-background:new    ;" width="3197" height="2175" id="image-2_2_" xlink:href="4FCBD9347D91F6FB.png"  transform="matrix(0.1772 0 0 0.36 150.39 42.11)">
								</image>
							</g>
						</g>
					</g>
				</g>
			</g>
		</g>
	</g>
</g>
</svg>
